<?xml version="1.0" encoding="UTF-8"?>
<svg width="14px" height="15px" viewBox="0 0 14 15" version="1.1" xmlns="http://www.w3.org/2000/svg" xmlns:xlink="http://www.w3.org/1999/xlink">
    <!-- Generator: Sketch 61.1 (89650) - https://sketch.com -->
    <title>Icono / Calendario</title>
    <desc>Created with Sketch.</desc>
    <g id="Componentes" stroke="none" stroke-width="1" fill="none" fill-rule="evenodd">
        <g id="List-/-Job-/-Date" transform="translate(-1.000000, -8.000000)" fill="#1D1B1A">
            <g id="Icono-/-Both-/-Date" transform="translate(0.000000, 8.000000)">
                <path d="M2.66666667,6 L13.3333333,6 L13.3333333,4 L2.66666667,4 L2.66666667,6 Z M2.66666667,13.3333333 L13.3333333,13.3333333 L13.3333333,7.33333333 L2.66666667,7.33333333 L2.66666667,13.3333333 Z M12.6666667,2.66666667 L12.6666667,1.33333333 C12.6666667,0.965333333 12.368,0.666666667 12,0.666666667 C11.632,0.666666667 11.3333333,0.965333333 11.3333333,1.33333333 L11.3333333,2.66666667 L4.66666667,2.66666667 L4.66666667,1.33333333 C4.66666667,0.965333333 4.368,0.666666667 4,0.666666667 C3.632,0.666666667 3.33333333,0.965333333 3.33333333,1.33333333 L3.33333333,2.66666667 L2.66666667,2.66666667 C1.93066667,2.66666667 1.33333333,3.264 1.33333333,4 L1.33333333,13.3333333 C1.33333333,14.0693333 1.93066667,14.6666667 2.66666667,14.6666667 L13.3333333,14.6666667 C14.0693333,14.6666667 14.6666667,14.0693333 14.6666667,13.3333333 L14.6666667,4 C14.6666667,3.264 14.0693333,2.66666667 13.3333333,2.66666667 L12.6666667,2.66666667 Z" id="Fill-2"></path>
            </g>
        </g>
    </g>
</svg>