<?xml version="1.0" encoding="UTF-8"?>
<svg width="32px" height="24px" viewBox="0 0 32 24" version="1.1" xmlns="http://www.w3.org/2000/svg" xmlns:xlink="http://www.w3.org/1999/xlink">
    <!-- Generator: Sketch 61.2 (89653) - https://sketch.com -->
    <title>Group</title>
    <desc>Created with Sketch.</desc>
    <defs>
        <path d="M2,0 C0.897,0 0,0.797333333 0,1.77777778 L0,14.2222222 C0,15.2026667 0.897,16 2,16 L22,16 C23.103,16 24,15.2026667 24,14.2222222 L24,1.77777778 C24,0.797333333 23.103,0 22,0 L2,0 Z" id="path-1"></path>
        <filter x="-22.9%" y="-34.4%" width="154.2%" height="181.2%" filterUnits="objectBoundingBox" id="filter-2">
            <feOffset dx="1" dy="1" in="SourceAlpha" result="shadowOffsetOuter1"></feOffset>
            <feGaussianBlur stdDeviation="2" in="shadowOffsetOuter1" result="shadowBlurOuter1"></feGaussianBlur>
            <feColorMatrix values="0 0 0 0 0   0 0 0 0 0   0 0 0 0 0  0 0 0 0.1 0" type="matrix" in="shadowBlurOuter1"></feColorMatrix>
        </filter>
    </defs>
    <g id="📎-Iconos" stroke="none" stroke-width="1" fill="none" fill-rule="evenodd">
        <g id="Icon/8.-M/Credit-card/_Default" transform="translate(-1.000000, -5.000000)">
            <g id="Group" transform="translate(4.000000, 8.000000)">
                <g id="Path">
                    <use fill="black" fill-opacity="1" filter="url(#filter-2)" xlink:href="#path-1"></use>
                    <use fill="#FFFFFF" fill-rule="evenodd" xlink:href="#path-1"></use>
                </g>
                <rect id="Rectangle" fill="#E8E8E8" x="0" y="3" width="24" height="4"></rect>
                <path d="M4,13 L10,13 C10.553,13 11,12.552 11,12 C11,11.448 10.553,11 10,11 L4,11 C3.447,11 3,11.448 3,12 C3,12.552 3.447,13 4,13" id="Combined-Shape" fill="#E8E8E8"></path>
            </g>
        </g>
    </g>
</svg>