<?xml version="1.0" encoding="UTF-8"?>
<svg width="24px" height="24px" viewBox="0 0 24 24" version="1.1" xmlns="http://www.w3.org/2000/svg" xmlns:xlink="http://www.w3.org/1999/xlink">
    <!-- Generator: Sketch 57.1 (83088) - https://sketch.com -->
    <title>Icono / Basics / Close</title>
    <desc>Created with Sketch.</desc>
    <defs>
        <path d="M13.4141,12 L19.7781,5.636 C20.1691,5.245 20.1691,4.612 19.7781,4.222 C19.3881,3.831 18.7551,3.831 18.3641,4.222 L12.0001,10.586 L5.6361,4.222 C5.2451,3.831 4.6121,3.831 4.2221,4.222 C3.8311,4.612 3.8311,5.245 4.2221,5.636 L10.5861,12 L4.2221,18.364 C3.8311,18.755 3.8311,19.388 4.2221,19.778 C4.4171,19.974 4.6731,20.071 4.9291,20.071 C5.1851,20.071 5.4401,19.974 5.6361,19.778 L12.0001,13.414 L18.3641,19.778 C18.5601,19.974 18.8151,20.071 19.0711,20.071 C19.3271,20.071 19.5831,19.974 19.7781,19.778 C20.1691,19.388 20.1691,18.755 19.7781,18.364 L13.4141,12 Z" id="path-1"></path>
    </defs>
    <g id="Icono-/-Basics-/-Close" stroke="none" stroke-width="1" fill="none" fill-rule="evenodd">
        <mask id="mask-2" fill="white">
            <use xlink:href="#path-1"></use>
        </mask>
        <g id="Mask"></g>
        <g id="✱-/-Color-/-Black-/-800" mask="url(#mask-2)" fill="#444444">
            <rect id="Rectangle-13" x="0" y="0" width="24" height="24"></rect>
        </g>
    </g>
</svg>