<?xml version="1.0" encoding="UTF-8"?>
<svg width="12px" height="16px" viewBox="0 0 12 16" version="1.1" xmlns="http://www.w3.org/2000/svg" xmlns:xlink="http://www.w3.org/1999/xlink">
    <!-- Generator: Sketch 61.1 (89650) - https://sketch.com -->
    <title>icono/ubicacion</title>
    <desc>Created with Sketch.</desc>
    <g id="Componentes" stroke="none" stroke-width="1" fill="none" fill-rule="evenodd">
        <g id="List-/-Job-/-Place" transform="translate(-2.000000, -8.000000)" fill="#1D1B1A">
            <g id="Icono-/-Outlined-/-Ubicacion" transform="translate(0.000000, 8.000000)">
                <path d="M8,14.4117333 C6.64866667,13.1917333 3.35133333,9.3104 3.33393711,5.9924 C3.32066667,3.42306667 5.42933333,1.33306667 8,1.33306667 C10.5706667,1.33306667 12.6793333,3.42306667 12.6660629,5.9924 C12.6486667,9.3104 9.35133333,13.1917333 8,14.4117333 M8,-0.000266666667 C4.686,-0.000266666667 2,2.6864 2,5.99973333 C2.05,10.6630667 7.328,15.9997333 8,15.9997333 C8.672,15.9997333 13.95,10.6630667 14,5.99973333 C14,2.6864 11.314,-0.000266666667 8,-0.000266666667" id="Fill-1"></path>
                <path d="M8,7.33326667 C7.26466667,7.33326667 6.66666667,6.73526667 6.66666667,5.99993333 C6.66666667,5.2646 7.26466667,4.6666 8,4.6666 C8.73533333,4.6666 9.33333333,5.2646 9.33333333,5.99993333 C9.33333333,6.73526667 8.73533333,7.33326667 8,7.33326667 M8,3.33326667 C6.52733333,3.33326667 5.33333333,4.52726667 5.33333333,5.99993333 C5.33333333,7.4726 6.52733333,8.6666 8,8.6666 C9.47266667,8.6666 10.6666667,7.4726 10.6666667,5.99993333 C10.6666667,4.52726667 9.47266667,3.33326667 8,3.33326667" id="Fill-4"></path>
            </g>
        </g>
    </g>
</svg>