<?xml version="1.0" encoding="UTF-8"?>
<svg width="24px" height="24px" viewBox="0 0 24 24" version="1.1" xmlns="http://www.w3.org/2000/svg" xmlns:xlink="http://www.w3.org/1999/xlink">
    <!-- Generator: Sketch 57.1 (83088) - https://sketch.com -->
    <title>Icono / Imputs / Radio Button  / Checked</title>
    <desc>Created with Sketch.</desc>
    <defs>
        <path d="M12,0 C18.627,0 24,5.373 24,12 C24,18.627 18.627,24 12,24 C5.373,24 0,18.627 0,12 C0,5.373 5.373,0 12,0 Z M12,2 C6.4771525,2 2,6.4771525 2,12 C2,17.5228475 6.4771525,22 12,22 C17.5228475,22 22,17.5228475 22,12 C22,6.4771525 17.5228475,2 12,2 Z M12,7 C14.76125,7 17,9.23875 17,12 C17,14.76125 14.76125,17 12,17 C9.23875,17 7,14.76125 7,12 C7,9.23875 9.23875,7 12,7 Z" id="path-1"></path>
    </defs>
    <g id="Icono-/-Imputs-/-Radio-Button--/-Checked" stroke="none" stroke-width="1" fill="none" fill-rule="evenodd">
        <mask id="mask-2" fill="white">
            <use xlink:href="#path-1"></use>
        </mask>
        <g id="Combined-Shape"></g>
        <g id="✱-/-Color-/-Secondary-/-700" mask="url(#mask-2)" fill="#048285">
            <rect id="Rectangle-13" x="0" y="0" width="24" height="24"></rect>
        </g>
    </g>
</svg>