<?xml version="1.0" encoding="UTF-8"?>
<svg width="24px" height="24px" viewBox="0 0 24 24" version="1.1" xmlns="http://www.w3.org/2000/svg" xmlns:xlink="http://www.w3.org/1999/xlink">
    <!-- Generator: Sketch 57.1 (83088) - https://sketch.com -->
    <title>Icono / Imputs / Radio Button / Unchecked</title>
    <desc>Created with Sketch.</desc>
    <defs>
        <path d="M12,0 C18.627,0 24,5.373 24,12 C24,18.627 18.627,24 12,24 C5.373,24 0,18.627 0,12 C0,5.373 5.373,0 12,0 Z M12,2 C6.4771525,2 2,6.4771525 2,12 C2,17.5228475 6.4771525,22 12,22 C17.5228475,22 22,17.5228475 22,12 C22,6.4771525 17.5228475,2 12,2 Z" id="path-1"></path>
    </defs>
    <g id="Icono-/-Imputs-/-Radio-Button-/-Unchecked" stroke="none" stroke-width="1" fill="none" fill-rule="evenodd">
        <mask id="mask-2" fill="white">
            <use xlink:href="#path-1"></use>
        </mask>
        <path stroke="#D2D2D2" stroke-width="2" d="M12,1 C5.92528475,1 1,5.92528475 1,12 C1,18.0747153 5.92528475,23 12,23 C18.0747153,23 23,18.0747153 23,12 C23,5.92528475 18.0747153,1 12,1 Z M12,1 C18.0751322,1 23,5.92486775 23,12 C23,18.0751322 18.0751322,23 12,23 C5.92486775,23 1,18.0751322 1,12 C1,5.92486775 5.92486775,1 12,1 Z"></path>
        <g id="✱-/-Color-/-Black-/-300" mask="url(#mask-2)" fill="#D2D2D2">
            <rect id="Rectangle-13" x="0" y="0" width="24" height="24"></rect>
        </g>
    </g>
</svg>