<?xml version="1.0" encoding="UTF-8"?>
<svg width="16px" height="16px" viewBox="0 0 16 16" version="1.1" xmlns="http://www.w3.org/2000/svg" xmlns:xlink="http://www.w3.org/1999/xlink">
    <!-- Generator: Sketch 61.1 (89650) - https://sketch.com -->
    <title>Icono</title>
    <desc>Created with Sketch.</desc>
    <defs>
        <path d="M8,0.666666667 C12.05,0.666666667 15.3333333,3.95 15.3333333,8 C15.3333333,12.05 12.05,15.3333333 8,15.3333333 C3.95,15.3333333 0.666666667,12.05 0.666666667,8 C0.666666667,3.95 3.95,0.666666667 8,0.666666667 Z M9.33333333,10.6666667 L6.66666667,10.6666667 C5.93133333,10.6666667 5.33333333,11.2646667 5.33333333,12 L5.33333333,12 L5.33333333,13.3666667 C6.138,13.768 7.042,14 8,14 C8.95866667,14 9.862,13.768 10.6666667,13.3666667 L10.6666667,13.3666667 L10.6666667,12 C10.6666667,11.2646667 10.0686667,10.6666667 9.33333333,10.6666667 L9.33333333,10.6666667 Z M8,2 C4.69133333,2 2,4.69133333 2,8 C2,9.77066667 2.776,11.36 4,12.4593333 L4,12.4593333 L4,12 C4,10.5273333 5.194,9.33333333 6.66666667,9.33333333 L6.66666667,9.33333333 L9.33333333,9.33333333 C10.806,9.33333333 12,10.5273333 12,12 L12,12 L12,12.4593333 C13.224,11.36 14,9.77066667 14,8 C14,4.69133333 11.3086667,2 8,2 Z M8,3.33333333 C9.47266667,3.33333333 10.6666667,4.52733333 10.6666667,6 C10.6666667,7.47266667 9.47266667,8.66666667 8,8.66666667 C6.52733333,8.66666667 5.33333333,7.47266667 5.33333333,6 C5.33333333,4.52733333 6.52733333,3.33333333 8,3.33333333 Z M8,4.66666667 C7.26466667,4.66666667 6.66666667,5.26466667 6.66666667,6 C6.66666667,6.73533333 7.26466667,7.33333333 8,7.33333333 C8.73533333,7.33333333 9.33333333,6.73533333 9.33333333,6 C9.33333333,5.26466667 8.73533333,4.66666667 8,4.66666667 Z" id="path-1"></path>
    </defs>
    <g id="Componentes" stroke="none" stroke-width="1" fill="none" fill-rule="evenodd">
        <g id="List-/-Job-/-User" transform="translate(0.000000, -8.000000)">
            <g id="Icono-/-Outlined-/-User" transform="translate(0.000000, 8.000000)">
                <mask id="mask-2" fill="white">
                    <use xlink:href="#path-1"></use>
                </mask>
                <use id="Mask" fill="#1D1B1A" fill-rule="evenodd" xlink:href="#path-1"></use>
            </g>
        </g>
    </g>
</svg>